<?xml version="1.0" encoding="UTF-8"?>
<svg version="1.1" xmlns="http://www.w3.org/2000/svg" width="64" height="64">
<path d="M0 0 C0.71542969 0.2165625 1.43085937 0.433125 2.16796875 0.65625 C9.92823471 2.82470724 16.96551998 3.34988865 25 3 C24.37338915 7.83917293 23.52507529 12.52249128 22.3125 17.25 C22.01988281 18.45140625 21.72726563 19.6528125 21.42578125 20.890625 C20 24 20 24 17.1953125 25.90234375 C10.17675368 28.31336457 2.8821025 27.54338571 -4 25 C-4.33 24.67 -4.66 24.34 -5 24 C-4.57097164 15.70545165 -2.25153643 7.9484472 0 0 Z " fill="#FFFFFF" transform="translate(39,8)"/>
<path d="M0 0 C4.74121094 0.92871094 4.74121094 0.92871094 7.0703125 1.5703125 C13.24701444 3.23778717 18.7015729 2.87118431 25 2 C23.90505906 7.3834596 22.59295495 12.66006915 21.0625 17.9375 C20.74410156 19.03964844 20.42570312 20.14179687 20.09765625 21.27734375 C19 24 19 24 16 26 C8.89604917 27.97331968 1.56753587 27.42470218 -5 24 C-6.15294668 20.54115996 -5.79943888 19.52872276 -4.78515625 16.11328125 C-4.37426758 14.7065918 -4.37426758 14.7065918 -3.95507812 13.27148438 C-3.66052734 12.29501953 -3.36597656 11.31855469 -3.0625 10.3125 C-2.77181641 9.32443359 -2.48113281 8.33636719 -2.18164062 7.31835938 C-1.46206783 4.8765304 -0.73459007 2.43734518 0 0 Z " fill="#FFFFFF" transform="translate(32,35)"/>
<path d="M0 0 C-1.30048696 7.77232205 -3.00451897 15.37726245 -5 23 C-5.71542969 22.855625 -6.43085938 22.71125 -7.16796875 22.5625 C-14.85699952 21.13013204 -22.18950511 20.7732437 -30 21 C-29.00980754 15.62966206 -27.89204249 10.29717717 -26.5625 5 C-26.33691406 4.0925 -26.11132812 3.185 -25.87890625 2.25 C-25 0 -25 0 -22 -2 C-14.13769522 -4.18397355 -7.50402439 -2.53657162 0 0 Z " fill="#FFFFFF" transform="translate(37,5)"/>
<path d="M0 0 C1.28648438 -0.01675781 2.57296875 -0.03351562 3.8984375 -0.05078125 C7.81649454 0.33116771 10.25501614 1.33537324 13.625 3.3125 C12.8450737 6.77359008 12.04908427 10.23078716 11.25 13.6875 C10.91742187 15.16476563 10.91742187 15.16476563 10.578125 16.671875 C10.35898437 17.61289062 10.13984375 18.55390625 9.9140625 19.5234375 C9.71506348 20.39274902 9.51606445 21.26206055 9.31103516 22.15771484 C8.625 24.3125 8.625 24.3125 6.625 26.3125 C5.98433594 26.0959375 5.34367187 25.879375 4.68359375 25.65625 C-2.74099172 23.26621951 -8.66081941 22.80729403 -16.375 24.3125 C-15.95219689 19.02746118 -14.90882669 14.06938056 -13.5625 8.9375 C-13.24667969 7.73351563 -12.93085938 6.52953125 -12.60546875 5.2890625 C-11.375 2.3125 -11.375 2.3125 -9.69921875 0.91796875 C-6.42443899 0.06487486 -3.38226541 0.01012654 0 0 Z " fill="#FFFFFF" transform="translate(16.375,28.6875)"/>
</svg>
